<svg xmlns="http://www.w3.org/2000/svg" viewBox="0 0 54.64 51.01"><defs><style>.cls-1,.cls-2{stroke:#000;stroke-miterlimit:10;stroke-width:2px;}.cls-2{fill:#efb4b0;}</style></defs><title>aftereffects</title><g id="Layer_2" data-name="Layer 2"><g id="Layer_1-2" data-name="Layer 1"><path class="cls-1" d="M29.13,1H24.34v.47a24.51,24.51,0,0,0,0,48.07V50h4.79a24.51,24.51,0,1,0,0-49Z"/><circle class="cls-2" cx="25.51" cy="25.51" r="24.51"/><path d="M27.83,35H23.62l-1.68-4.35H14.28L12.69,35H8.58l7.48-19.18h4.09ZM20.7,27.41l-2.64-7.12-2.59,7.12Z"/><path d="M36.56,30.57l3.67.62A6,6,0,0,1,38,34.25a6.52,6.52,0,0,1-3.82,1.06,6.21,6.21,0,0,1-5.36-2.37,7.94,7.94,0,0,1-1.37-4.79,7.7,7.7,0,0,1,1.8-5.41,6,6,0,0,1,4.57-1.95,6.19,6.19,0,0,1,4.89,2c1.19,1.37,1.77,3.46,1.71,6.28H31.21a3.77,3.77,0,0,0,.89,2.54,2.78,2.78,0,0,0,2.12.91,2.25,2.25,0,0,0,1.45-.47A2.88,2.88,0,0,0,36.56,30.57Zm.21-3.71A3.52,3.52,0,0,0,36,24.43,2.54,2.54,0,0,0,34,23.6a2.56,2.56,0,0,0-2,.87,3.42,3.42,0,0,0-.77,2.39Z"/></g></g></svg>