<svg xmlns="http://www.w3.org/2000/svg" viewBox="0 0 54.64 51.01"><defs><style>.cls-1,.cls-2{stroke:#000;stroke-miterlimit:10;stroke-width:2px;}.cls-2{fill:#efb4b0;}</style></defs><title>animate</title><g id="Layer_2" data-name="Layer 2"><g id="Layer_1-2" data-name="Layer 1"><rect class="cls-1" x="24.34" y="1" width="4.79" height="49"/><circle class="cls-1" cx="29.13" cy="25.51" r="24.51"/><circle class="cls-2" cx="25.51" cy="25.51" r="24.51"/><path d="M28.47,35.1H24.25l-1.67-4.36H14.91L13.32,35.1H9.21l7.48-19.19h4.09Zm-7.14-7.59-2.64-7.12L16.1,27.51Z"/><path d="M41.8,35.1H38.12V28a11,11,0,0,0-.23-2.92,2,2,0,0,0-.77-1,2.14,2.14,0,0,0-1.27-.37,3,3,0,0,0-1.72.52,2.66,2.66,0,0,0-1,1.39,12,12,0,0,0-.28,3.2V35.1H29.13V21.2h3.42v2a5.72,5.72,0,0,1,6.8-1.92,3.83,3.83,0,0,1,1.53,1.12A4.24,4.24,0,0,1,41.6,24a11.82,11.82,0,0,1,.2,2.47V35.1Z"/></g></g></svg>