<svg xmlns="http://www.w3.org/2000/svg" viewBox="0 0 43.95 43.74"><defs><style>.cls-1{fill:#efb4b0;stroke:#000;stroke-miterlimit:10;stroke-width:2px;}</style></defs><title>behance</title><g id="Layer_2" data-name="Layer 2"><g id="Layer_1-2" data-name="Layer 1"><polygon points="41.89 0.06 4.13 3.92 0.01 41.81 4.13 43.74 43.95 43.74 43.95 3.92 41.89 0.06"/><rect class="cls-1" x="1" y="1" width="39.82" height="39.82"/><path d="M7.42,12.34H15.9a5.92,5.92,0,0,1,2.65.51,4,4,0,0,1,2.28,3.52,4,4,0,0,1-.29,2A2.65,2.65,0,0,1,19,19.81a3.24,3.24,0,0,1-.4.14,8.28,8.28,0,0,1,1.23.45,2.6,2.6,0,0,1,1.23,1.51,6.07,6.07,0,0,1,0,4.18,4.23,4.23,0,0,1-2.92,2.68,7.31,7.31,0,0,1-2.23.34H7.42Zm3.82,13.78H12c1.35,0,2.7,0,4,0a1.64,1.64,0,0,0,1.51-.89,2.83,2.83,0,0,0,.26-1.62,1.93,1.93,0,0,0-2.1-2c-1.39,0-2.78,0-4.17,0h-.34Zm0-7h4.35c.17,0,.34,0,.51,0a1.08,1.08,0,0,0,1-.78,3.36,3.36,0,0,0,.08-1.91,1.25,1.25,0,0,0-1.35-1c-1.41,0-2.82,0-4.23,0h-.37Z"/><path d="M25.72,23.88a2.54,2.54,0,0,0,2,2.83A4.29,4.29,0,0,0,30,26.6,1.8,1.8,0,0,0,31.32,25h2.91a3.94,3.94,0,0,1-.6,2.29,4.33,4.33,0,0,1-2.74,1.85,8.91,8.91,0,0,1-4.67,0,5.27,5.27,0,0,1-3.86-3.92,7.39,7.39,0,0,1,.69-5.67,5.37,5.37,0,0,1,3.87-2.79,7.44,7.44,0,0,1,4,.22A4.92,4.92,0,0,1,34,20.39a9.17,9.17,0,0,1,.37,3.17c0,.25-.08.32-.33.32H25.72Zm0-2.26h5.42a2.43,2.43,0,0,0-1.67-2.44,3.26,3.26,0,0,0-1.67,0A2.92,2.92,0,0,0,25.69,21.62Z"/><path d="M31.82,13.35v2H25v-2Z"/></g></g></svg>