<svg xmlns="http://www.w3.org/2000/svg" viewBox="0 0 43.95 43.74"><defs><style>.cls-1{fill:#efb4b0;stroke:#000;stroke-miterlimit:10;stroke-width:2px;}</style></defs><title>instagram</title><g id="Layer_2" data-name="Layer 2"><g id="Layer_1-2" data-name="Layer 1"><polygon points="41.89 0.06 4.13 3.92 0.01 41.81 4.13 43.74 43.95 43.74 43.95 3.92 41.89 0.06"/><rect class="cls-1" x="1" y="1" width="39.82" height="39.82"/><path d="M30.2,20.83c0,1.33-.05,2.67-.12,4a5.12,5.12,0,0,1-1.63,3.66,5,5,0,0,1-2.93,1.27c-.87.09-1.74.12-2.62.13-1.63,0-3.26,0-4.89,0a12.71,12.71,0,0,1-2.38-.23,4.78,4.78,0,0,1-3.87-4.35,24.83,24.83,0,0,1-.13-2.73c0-1.61,0-3.23,0-4.85a9.57,9.57,0,0,1,.29-2.66,4.69,4.69,0,0,1,4-3.51,21.39,21.39,0,0,1,3-.19c1.61,0,3.23,0,4.85,0a9.29,9.29,0,0,1,2.77.32,4.67,4.67,0,0,1,3.42,4,24.21,24.21,0,0,1,.19,3.07c0,.7,0,1.41,0,2.11Zm-1.68-.2h-.05c0-.94,0-1.88,0-2.82a13.42,13.42,0,0,0-.14-1.91A3.05,3.05,0,0,0,26,13.3a5,5,0,0,0-1.26-.21q-3.12,0-6.23-.05c-.71,0-1.41,0-2.11.11a3.14,3.14,0,0,0-3,2.78,17.26,17.26,0,0,0-.16,2.49c0,1.64,0,3.28,0,4.91a13.53,13.53,0,0,0,.15,2A3.07,3.07,0,0,0,15.78,28a4.7,4.7,0,0,0,1,.17c1,.05,1.91.08,2.86.08,1.78,0,3.56,0,5.34-.08a3.56,3.56,0,0,0,2.16-.77,3.39,3.39,0,0,0,1.21-2.61C28.47,23.38,28.48,22,28.52,20.63Z"/><path d="M25.66,20.62a4.77,4.77,0,1,1-4.75-4.77A4.77,4.77,0,0,1,25.66,20.62Zm-1.69,0a3.08,3.08,0,1,0-3,3.08A3.07,3.07,0,0,0,24,20.62Z"/><path d="M25.84,16.79A1.12,1.12,0,1,1,27,15.68,1.12,1.12,0,0,1,25.84,16.79Z"/></g></g></svg>