<svg xmlns="http://www.w3.org/2000/svg" viewBox="0 0 43.95 43.74"><defs><style>.cls-1{fill:#efb4b0;stroke:#000;stroke-miterlimit:10;stroke-width:2px;}</style></defs><title>linkedin</title><g id="Layer_2" data-name="Layer 2"><g id="Layer_1-2" data-name="Layer 1"><polygon points="41.89 0.06 4.13 3.92 0.01 41.81 4.13 43.74 43.95 43.74 43.95 3.92 41.89 0.06"/><rect class="cls-1" x="1" y="1" width="39.82" height="39.82"/><path d="M30.83,30.05h-4.3v-.18c0-2.2,0-4.39,0-6.58A4.85,4.85,0,0,0,26.37,22a2,2,0,0,0-3.26-1,2.23,2.23,0,0,0-.82,1.75v7.28H18V17.4h4.29v1.54l0,0s0-.06,0-.08A4.12,4.12,0,0,1,26,17.1a4.66,4.66,0,0,1,3.06,1,4.71,4.71,0,0,1,1.51,2.5,7.63,7.63,0,0,1,.26,2.07c0,2.41,0,4.82,0,7.23Z"/><path d="M11.53,17.39H15.8V30.05H11.53Z"/><path d="M13.66,15.84a2.4,2.4,0,0,1-1.84-.78,2.13,2.13,0,0,1-.43-2.22,2.11,2.11,0,0,1,1.69-1.43,2.75,2.75,0,0,1,1.83.21,2.21,2.21,0,0,1,1.16,2.31,2.16,2.16,0,0,1-1.74,1.82C14.11,15.79,13.88,15.81,13.66,15.84Z"/></g></g></svg>