<svg xmlns="http://www.w3.org/2000/svg" viewBox="0 0 54.64 51.01"><defs><style>.cls-1,.cls-2{stroke:#000;stroke-miterlimit:10;stroke-width:2px;}.cls-2{fill:#efb4b0;}.cls-3{fill:gray;}.cls-4{fill:#4d4d4d;}.cls-5{fill:#999;}.cls-6{fill:#333;}.cls-7{fill:#1a1a1a;}.cls-8{fill:#666;}</style></defs><title>maya</title><g id="Layer_2" data-name="Layer 2"><g id="Layer_1-2" data-name="Layer 1"><path class="cls-1" d="M29.13,1H24.34v.47a24.51,24.51,0,0,0,0,48.07V50h4.79a24.51,24.51,0,1,0,0-49Z"/><circle class="cls-2" cx="25.51" cy="25.51" r="24.51"/><polygon class="cls-3" points="25.51 10.71 11.19 18.59 16.84 25.44 16.84 21.27 25.51 10.71"/><polygon points="25.51 10.71 20.51 25.44 16.84 21.27 25.51 10.71"/><polygon class="cls-4" points="19.52 28.49 20.51 25.44 16.84 21.27 16.84 25.44 19.52 28.49"/><polygon class="cls-5" points="16.84 36.48 19.52 28.49 16.84 25.44 16.84 36.48"/><polygon class="cls-6" points="11.19 36.48 16.84 36.48 16.84 25.44 11.19 18.59 11.19 36.48"/><polygon class="cls-7" points="19.52 28.49 20.51 25.44 25.51 30.72 25.51 35.75 19.52 28.49"/><polygon class="cls-8" points="25.51 10.71 25.51 30.72 20.51 25.44 25.51 10.71"/><polygon class="cls-3" points="25.51 10.71 39.82 18.59 34.17 25.44 34.17 21.27 25.51 10.71"/><polygon points="25.51 10.71 30.5 25.44 34.17 21.27 25.51 10.71"/><polygon class="cls-4" points="31.49 28.49 30.5 25.44 34.17 21.27 34.17 25.44 31.49 28.49"/><polygon class="cls-5" points="34.17 36.48 31.49 28.49 34.17 25.44 34.17 36.48"/><polygon class="cls-6" points="39.82 36.48 34.17 36.48 34.17 25.44 39.82 18.59 39.82 36.48"/><polygon class="cls-7" points="31.49 28.49 30.5 25.44 25.51 30.72 25.51 35.75 31.49 28.49"/><polygon class="cls-8" points="25.51 10.71 25.51 30.72 30.5 25.44 25.51 10.71"/></g></g></svg>