<svg xmlns="http://www.w3.org/2000/svg" viewBox="0 0 54.64 51.01"><defs><style>.cls-1,.cls-2{stroke:#000;stroke-miterlimit:10;stroke-width:2px;}.cls-2{fill:#efb4b0;}</style></defs><title>photoshop</title><g id="Layer_2" data-name="Layer 2"><g id="Layer_1-2" data-name="Layer 1"><path class="cls-1" d="M29.13,1H24.34v.47a24.51,24.51,0,0,0,0,48.07V50h4.79a24.51,24.51,0,1,0,0-49Z"/><circle class="cls-2" cx="25.51" cy="25.51" r="24.51"/><path d="M11.45,35V15.86c6.34,0,9.48-.06,10.79.29A5,5,0,0,1,25,18a6.88,6.88,0,0,1,.47,6.69,5.46,5.46,0,0,1-3.62,2.79,39.94,39.94,0,0,1-6.53.27V35ZM15.31,19.1v5.42c3.92,0,5.44.13,6.38-1.24a2.72,2.72,0,0,0-.18-3.21C20.53,19,19.46,19.1,15.31,19.1Z"/><path d="M26.62,31l3.68-.56a2.64,2.64,0,0,0,3,2.18c1.2,0,2.62-.3,2.62-1.5,0-.81-.67-1-1.48-1.17a19.67,19.67,0,0,1-5.63-1.79,3.59,3.59,0,0,1-1.64-3.12,3.84,3.84,0,0,1,1.42-3A6.69,6.69,0,0,1,33,20.82c3,0,5.29.73,6.13,3.66l-3.45.64a2.14,2.14,0,0,0-.85-1.24,4.6,4.6,0,0,0-3.84,0,.83.83,0,0,0-.05,1.41c1.06.78,5.6,1.07,7.51,2.66a3.37,3.37,0,0,1,1.15,2.73A4.17,4.17,0,0,1,38,33.93a7.06,7.06,0,0,1-4.71,1.37,7.68,7.68,0,0,1-4.48-1.15A5.26,5.26,0,0,1,26.62,31Z"/></g></g></svg>