<svg xmlns="http://www.w3.org/2000/svg" viewBox="0 0 43.95 43.74"><defs><style>.cls-1{fill:#efb4b0;stroke:#000;stroke-miterlimit:10;stroke-width:2px;}</style></defs><title>vimeo</title><g id="Layer_2" data-name="Layer 2"><g id="Layer_1-2" data-name="Layer 1"><polygon points="41.89 0.06 4.13 3.92 0.01 41.81 4.13 43.74 43.95 43.74 43.95 3.92 41.89 0.06"/><rect class="cls-1" x="1" y="1" width="39.82" height="39.82"/><path d="M22.37,17.05A5.07,5.07,0,0,1,28.06,13a2.53,2.53,0,0,1,2,2.56A10.28,10.28,0,0,1,28.5,20.8,23.21,23.21,0,0,1,22,28.17c-1.48,1.11-2.71,1-3.83-.53a6.66,6.66,0,0,1-.93-1.89c-.72-2.19-1.37-4.4-2.09-6.6-.65-2-.73-2-2.66-1l-.73-.9a13.57,13.57,0,0,1,5-4.08,1.64,1.64,0,0,1,2.41,1.14c.44,1.31.63,2.69,1,4s.66,2.63,1.09,3.91c.3.89.75,1,1.28.21A31.3,31.3,0,0,0,24.64,19a1.36,1.36,0,0,0-.29-1.85c-.43-.27-1.13-.11-1.71-.13A1.22,1.22,0,0,0,22.37,17.05Z"/></g></g></svg>