<svg xmlns="http://www.w3.org/2000/svg" viewBox="0 0 54.64 51.01"><defs><style>.cls-1,.cls-2{stroke:#000;stroke-miterlimit:10;stroke-width:2px;}.cls-2{fill:#efb4b0;}</style></defs><title>zbrush</title><g id="Layer_2" data-name="Layer 2"><g id="Layer_1-2" data-name="Layer 1"><path class="cls-1" d="M29.13,1H24.34v.47a24.51,24.51,0,0,0,0,48.07V50h4.79a24.51,24.51,0,1,0,0-49Z"/><circle class="cls-2" cx="25.51" cy="25.51" r="24.51"/><path d="M7.86,35.18A9.92,9.92,0,0,1,11.05,31a25.07,25.07,0,0,1,5.29-3.45,21.1,21.1,0,0,1,4.6-1.79.47.47,0,0,0,.25-.17,30.58,30.58,0,0,1,4.43-4.81l0-.05s0,0,0,0a34.69,34.69,0,0,0-4.07-2.5,4.74,4.74,0,0,0-1.84-.48,2,2,0,0,0-.65.06A6.82,6.82,0,0,0,16,19.46a2,2,0,0,0-.59,1.64,1,1,0,0,1-.48,1,9.82,9.82,0,0,1-3.18,1.25c-.14,0-.4,0-.45-.1a.61.61,0,0,1,0-.49A13.21,13.21,0,0,1,13.44,20a12.79,12.79,0,0,1,3.84-2.88,9.54,9.54,0,0,1,7.46-.46c1.33.43,2.62,1,3.93,1.49a.48.48,0,0,0,.49-.06c.65-.42,1.3-.84,2-1.19a2.67,2.67,0,0,1,2.23-.11,1.35,1.35,0,0,1,.82,2,2.89,2.89,0,0,1-.54.8,18.87,18.87,0,0,1-1.84,1.62,4.18,4.18,0,0,1-4.57.37c-.48-.24-.49-.23-.87.13A41.49,41.49,0,0,0,23,25.48c.42,0,.77,0,1.11,0a15.37,15.37,0,0,1,5.59,1.57,17.82,17.82,0,0,1,8.64,8.53,9.56,9.56,0,0,1,.45,1.2.62.62,0,0,1-.14.69h-.52a19.06,19.06,0,0,1-3.79-2.64,1.7,1.7,0,0,1-.68-2.15,1.07,1.07,0,0,0-.15-1,2.88,2.88,0,0,0-1.21-1.11,25.17,25.17,0,0,0-2.35-1,21.22,21.22,0,0,0-4.1-.79,23.52,23.52,0,0,0-5.17-.19.53.53,0,0,0-.31.15c-.7.73-1.38,1.49-2.1,2.19A28.48,28.48,0,0,1,15.94,33a16.79,16.79,0,0,1-5,2.76,6.17,6.17,0,0,1-2.56.35.55.55,0,0,1-.47-.31Zm10.71-6.32-.36.05c-.51.13-1,.24-1.55.38a16.52,16.52,0,0,0-5.22,2.4,4.76,4.76,0,0,0-1.8,2.37c-.2.6,0,.88.65.84l.23,0a10.33,10.33,0,0,0,1.25-.46A20.54,20.54,0,0,0,17.53,30C17.86,29.63,18.19,29.28,18.57,28.86Zm11.6-10.31v.08c.37.08.75.17,1.13.22a2.77,2.77,0,0,0,2-.4,2,2,0,0,0,.35-.49,1.52,1.52,0,0,0-.51-.28A4.56,4.56,0,0,0,30.17,18.55Z"/><path d="M26.68,15.22a2.94,2.94,0,0,1-2.52-.88,1.81,1.81,0,0,1-.36-1.84,3.12,3.12,0,0,1,1.49-1.83,1.77,1.77,0,0,1,1.6-.05,4.39,4.39,0,0,1,2.25,3.46c0,.46-.15.71-.6.81C27.82,15.05,27.08,15.15,26.68,15.22Z"/></g></g></svg>